<?xml version="1.0" encoding="utf-8"?>
<!-- Generator: Adobe Illustrator 22.0.1, SVG Export Plug-In . SVG Version: 6.00 Build 0)  -->
<svg version="1.1" id="Layer_1" xmlns="http://www.w3.org/2000/svg" xmlns:xlink="http://www.w3.org/1999/xlink" x="0px" y="0px"
	 viewBox="0 0 300 300" style="enable-background:new 0 0 300 300;" xml:space="preserve">
<style type="text/css">
	.st0{fill:#25DB92;}
	.st1{enable-background:new    ;}
	.st2{fill:#EAEAEA;}
</style>
<g>
	<path class="st0" d="M152,27c32.9,0,63.7,12.8,87,36s36,54.1,36,87s-12.8,63.7-36,87s-54.1,36-87,36s-63.7-12.8-87-36
		s-36-54.1-36-87s12.8-63.7,36-87S119.1,27,152,27 M152,13C76.3,13,15,74.3,15,150s61.3,137,137,137s137-61.3,137-137
		S227.7,13,152,13L152,13z"/>
</g>
<g class="st1">
	<path class="st2" d="M182.6,125.3c-0.6,0.3-1.2,0.5-1.9,0.7c-0.1,0.1-0.1,0.1-0.2,0.1c-0.1,0.1-0.2,0.1-0.3,0.1c0,0,0,0,0,0
		c-0.1,0.1-0.2,0.2-0.3,0.2c0,0,0,0,0,0c-0.1,0.1-0.2,0.1-0.3,0.1c0,0-0.1,0-0.1,0c-0.1,0.1-0.2,0.2-0.4,0.2c0,0,0,0,0,0
		c-0.1,0.1-0.2,0.2-0.4,0.2c0,0,0,0,0,0c-0.1,0-0.1,0.1-0.2,0.1c-0.1,0.1-0.2,0.1-0.3,0.1c0,0,0,0,0,0c-0.1,0.1-0.2,0.1-0.3,0.1
		c-0.1,0-0.1,0-0.2,0c-0.5,0.2-1,0.4-1.5,0.4c-0.1,0.1-0.2,0.1-0.3,0.1c-0.2,0.1-0.4,0.1-0.6,0.1c-2.7,3.2-5.5,6-8.5,8.5
		c-5.2,4.2-9.4,6.4-12.5,6.4c-1.9,0-3.2-0.8-4-2.3c-0.8-1.5-1.4-4.8-1.8-9.8c-5-59.9-7.6-92.4-7.7-97.7c-2.5-0.7-4.5-1-6.1-1h-7.6
		c-5.5,0-10,1-13.6,3c-13.5,35.2-23.2,60.2-29,75c-20.5,8.8-31.5,18.6-33,29.3c-0.2,1.5-0.3,2.8-0.3,4.2c0,4.8,1.4,8.9,4.3,12.1
		c2.8,3.3,6.6,4.9,11.1,4.9c4.6,0,8.9-1,12.9-3c1.6-0.8,3.1-2.1,4.6-3.9c1.5-1.8,2.7-3.3,3.5-4.4c0.8-1.2,1.8-3,3-5.6
		c1.2-2.6,2-4.5,2.4-5.8c0.4-1.3,1.2-3.4,2.3-6.4l5.7-15.7c7.9-2.6,15.8-5,23.6-7.4c0.7,9.3,1.3,16.8,2,22.6
		c1.1,11.2,3.3,18.8,6.4,22.9c3.2,4.1,7.9,6.1,14.2,6.1c11.1,0,22.4-7.6,34.2-22.8l4-5.4L182.6,125.3z M71.7,141
		c-1.2,2.9-2.8,4.4-4.9,4.4c-2.7,0-4-1.8-4-5.4c0-5,5.2-10.2,15.6-15.4C75.4,132.4,73.2,137.9,71.7,141z M105.9,101.8l14.6-40.7
		l2.8,34.8C119.5,97.2,113.7,99.1,105.9,101.8z"/>
</g>
<g>
	<path class="st2" d="M232,173c-3.9,3-12.9,7.6-27,13.7l8.4-58.6c0.6-4,1.7-7.1,3.4-9.2c1.7-2.1,3.3-3.2,5-3.2
		c1.7,0,3.4,0.4,5.2,1.2c0.1-1.1,0.2-2.2,0.2-3.4c0-5.4-1.4-10-4.2-13.9c-5.1,3.9-11.5,5.9-19.1,5.9c-4.2,0-10.2-1.3-18-3.9
		c-7.8-2.6-13.7-3.9-17.8-3.9c-6.7,0-12.3,1.8-16.7,5.3c-4.4,3.5-6.6,8.3-6.6,14.5c0,6.1,2.1,11.1,6.4,14.9
		c4.3,3.8,9.9,5.7,16.9,5.7c7,0,13.7-1.3,20-3.9c-2.2,14.2-4.4,30.9-6.5,50.1l-1.7,13.6c-25.7,13.6-38.5,29.2-38.5,46.7
		c0,6.7,2.2,12.8,6.5,18.2c4.4,5.4,10.2,8.1,17.7,8.1c7.4,0,14.2-2.5,20.4-7.6c6.2-5.1,10-13,11.5-23.7l5.5-39.2
		c2.1-0.9,5.4-2.2,9.7-3.9c4.4-1.7,8.9-3.6,13.6-5.6s8.7-4.3,12.1-6.9L232,173z M172.5,128.2c-3.7,0-6.5-0.6-8.4-1.8
		c-1.8-1.2-2.8-2.7-2.8-4.4c0-2.8,1.4-4.2,4.2-4.2c0.9,0,3.6,0.6,8.2,1.9c4.6,1.3,9,2.4,13.4,3.4c-2.6,1.5-5,2.6-7.2,3.4
		c0,0,0,0,0,0C177.1,127.7,174.6,128.2,172.5,128.2z M174.1,243.8c-0.4,3.7-1.7,6.4-3.7,8s-4.4,2.5-7.1,2.5c-2.7,0-5-1.2-6.8-3.7
		c-1.6-2.1-2.3-4.7-2.3-7.7c0-10.7,8-20.9,24-30.5L174.1,243.8z"/>
</g>
</svg>
