<?xml version="1.0" encoding="utf-8"?>
<!-- Generator: Adobe Illustrator 22.0.1, SVG Export Plug-In . SVG Version: 6.00 Build 0)  -->
<svg version="1.1" id="Layer_1" xmlns="http://www.w3.org/2000/svg" xmlns:xlink="http://www.w3.org/1999/xlink" x="0px" y="0px"
	 viewBox="0 0 350 125" style="enable-background:new 0 0 350 125;" xml:space="preserve">
<style type="text/css">
	.st0{fill:#EAEAEA;stroke:#EAEAEA;stroke-width:4;stroke-miterlimit:10;}
</style>
<g>
	<path class="st0" d="M123.5,75.9c0.2,0.2,0.2,0.5,0.2,0.8c0,0.5-0.2,0.9-0.6,1.2c-0.4,0.4-1,0.5-1.6,0.5c-0.4,0-0.8-0.1-1.2-0.2
		c-0.3-0.2-0.6-0.4-0.8-0.7c-0.8-1.2-1.4-2.7-2-4.4c-0.6-1.8-1.1-3.8-1.5-5.9c-0.4-2.2-0.8-4.5-1-7c-0.3-2.5-0.5-5.1-0.6-7.8
		c-3,0.3-6.3,0.7-10,1.1c-3.7,0.4-7.9,0.8-12.7,1.3c-3.3,0.4-6.7,0.7-10.2,1C73,63.2,64,68.9,54.7,72.7c-9.4,3.9-18.8,5.8-28.2,5.8
		c-4.2,0-7.8-0.3-10.9-1c-3.1-0.7-5.6-1.4-7.6-2.2c-2-0.8-3.5-1.6-4.5-2.3c-1-0.7-1.6-1.1-1.6-1.2c-0.4-0.3-0.6-0.7-0.6-1.2
		c0-0.5,0.2-0.9,0.7-1.3c0.4-0.4,1-0.5,1.5-0.5C4,68.8,4.6,69,5,69.4c0.1,0.1,0.6,0.4,1.4,1c0.9,0.6,2.2,1.2,3.9,1.9
		c1.7,0.7,3.9,1.3,6.6,1.8c2.7,0.5,5.8,0.8,9.5,0.8c5,0,9.8-0.5,14.3-1.6c4.6-1.1,8.9-2.5,12.9-4.2c4.1-1.7,7.9-3.7,11.4-6
		c3.5-2.2,6.7-4.5,9.5-6.8c-2.8,0.2-5.6,0.3-8.4,0.4c-2.8,0.1-5.5,0.1-8.2,0.1c-5.3,0-10.4-0.2-15.2-0.7c-4.8-0.5-9-1.3-12.7-2.4
		c-3.6-1.1-6.6-2.6-8.7-4.5c-2.2-1.9-3.2-4.2-3.2-7.1c0-1.3,0.3-2.6,1-3.8c0.7-1.3,1.4-2.4,2.4-3.5c0.9-1,1.9-1.9,2.9-2.5
		c1-0.7,1.8-1,2.6-1c0.6,0,1.1,0.2,1.5,0.5s0.7,0.8,0.7,1.3c0,0.3-0.1,0.6-0.2,0.8c-0.2,0.3-0.4,0.5-0.7,0.6c-0.1,0.1-0.4,0.3-1,0.7
		c-0.6,0.4-1.2,0.9-1.9,1.6c-0.7,0.7-1.3,1.4-1.8,2.4c-0.6,0.9-0.8,1.9-0.8,3c0,1.8,0.8,3.4,2.4,4.8c1.6,1.4,3.8,2.6,6.8,3.5
		c3,0.9,6.7,1.7,11,2.1c4.4,0.5,9.3,0.7,14.9,0.7c3.2,0,6.6-0.1,10.2-0.2c3.6-0.2,7.3-0.4,11.3-0.7c1.9-1.7,3.6-3.3,5.1-4.8
		c1.5-1.5,2.7-2.8,3.7-4c1.7-2,3.5-4,5.4-6.2c1.9-2.2,3.7-4.4,5.6-6.7c1.8-2.3,3.6-4.5,5.4-6.7c1.8-2.2,3.4-4.3,5-6.3
		c1.5-2,2.9-3.8,4.2-5.4c1.2-1.6,2.2-3,3-4c0.2-0.9,0.6-1.7,1.1-2.4c0.5-0.7,1.2-1.1,2.3-1.1c0.6,0,1.2,0.2,1.7,0.6
		c0.6,0.4,0.8,0.9,0.8,1.5c0,0.4-0.2,0.9-0.6,1.4c-0.4,0.5-0.8,0.9-1.1,1.3c-0.1,0.6-0.3,1.9-0.6,3.9c-0.3,2-0.5,4.4-0.8,7.3
		c-0.3,2.9-0.5,6-0.7,9.5c-0.2,3.4-0.3,6.9-0.3,10.4c0,1.3,0,2.6,0,3.9c0,1.3,0,2.6,0.1,3.9c5.9-0.6,10.3-1,13-1.3
		c2.7-0.2,4.2-0.4,4.3-0.4c0.5,0,1,0.2,1.5,0.5c0.5,0.3,0.7,0.8,0.7,1.3c0,0.4-0.2,0.8-0.6,1.2c-0.4,0.3-0.9,0.5-1.5,0.6
		c-0.7,0.1-1.5,0.1-2.5,0.2c-1,0.1-2.1,0.2-3.5,0.3c-1.4,0.1-3,0.3-4.9,0.5c-1.9,0.2-4,0.4-6.5,0.6c0.1,2.6,0.3,5.1,0.6,7.6
		c0.3,2.4,0.6,4.7,1,6.7c0.4,2.1,0.8,4,1.3,5.6C122.2,73.5,122.8,74.9,123.5,75.9z M91,51.2c4.7-0.5,8.9-1,12.8-1.4
		c3.8-0.4,7.3-0.8,10.4-1.1c0-1.4-0.1-2.8-0.1-4.1c0-1.4,0-2.8,0-4.2c0-4.5,0.1-8.8,0.3-12.9c0.2-4.1,0.5-7.7,0.8-10.7
		c-1.6,2-3.3,4.2-5.3,6.7c-1.9,2.4-3.9,4.9-6,7.5c-2.1,2.5-4.1,5.1-6.2,7.6c-2.1,2.5-4.1,4.8-6,7c-1,1.1-1.9,2.1-2.9,3.2
		c-1,1-2,2-3,3c0.9-0.1,1.7-0.1,2.6-0.2C89.3,51.3,90.1,51.3,91,51.2z"/>
	<path class="st0" d="M143.9,77.8c1.5-1.3,3-2.6,4.5-4.1s3-2.8,4.5-4.3c1.4-1.4,2.7-2.8,3.9-4.2c1.2-1.4,2.1-2.7,2.8-4
		c0.4-0.7,1-1.1,2-1.1c0.7,0,1.2,0.2,1.6,0.6c0.4,0.4,0.6,0.8,0.6,1.2c0,0.3-0.1,0.5-0.2,0.7c-0.9,1.7-2.2,3.4-3.7,5.2
		c-1.6,1.8-3.3,3.6-5.1,5.4c-1.8,1.8-3.7,3.5-5.7,5.2c-1.9,1.7-3.7,3.2-5.3,4.7c0,2.6,0.1,5.1,0.1,7.5c0.1,2.5,0.1,4.8,0.1,7
		c0,8.8-1.1,15.3-3.2,19.6c-2.1,4.3-5.3,6.4-9.6,6.4c-1.5,0-2.8-0.3-4-0.8c-1.2-0.5-2.3-1.2-3.2-2.2c-0.9-1-1.6-2.1-2.1-3.6
		c-0.5-1.4-0.7-3-0.7-4.8c0-2,0.3-4.2,1-6.5c0.7-2.4,1.7-4.8,3.2-7.5c1.4-2.6,3.3-5.3,5.6-8.1c2.3-2.8,5.1-5.6,8.3-8.5
		c0-2.8,0-5.5,0.1-8.2c0-2.7,0.1-5.4,0.2-7.9c0.1-2.5,0.2-4.9,0.4-7.1c0.2-2.2,0.4-4.1,0.6-5.8c0.1-0.5,0.3-0.9,0.7-1.2
		c0.4-0.3,0.9-0.4,1.5-0.4c0.6,0,1.1,0.2,1.5,0.5c0.4,0.4,0.7,0.8,0.7,1.3c0,0.2-0.1,0.8-0.2,1.9c-0.1,1.1-0.3,2.6-0.4,4.7
		c-0.2,2-0.3,4.6-0.4,7.6C143.9,70.1,143.9,73.7,143.9,77.8z M139.7,97.4c0-1.6,0-3.3-0.1-4.9c0-1.6-0.1-3.4-0.1-5.3
		c-2.5,2.4-4.6,4.8-6.3,7.1c-1.7,2.3-3.1,4.6-4.3,6.7c-1.1,2.1-1.9,4.2-2.4,6.1c-0.5,1.9-0.7,3.7-0.7,5.2c0,0.9,0.1,1.8,0.2,2.7
		c0.2,0.9,0.4,1.7,0.9,2.5s1,1.4,1.7,1.8c0.7,0.5,1.6,0.7,2.7,0.7c0.4,0,1-0.1,1.5-0.2c0.6-0.2,1.2-0.5,1.8-1
		c0.6-0.5,1.2-1.3,1.8-2.3c0.6-1,1.1-2.3,1.6-4c0.5-1.7,0.9-3.8,1.1-6.2C139.5,103.8,139.7,100.9,139.7,97.4z M149.6,38.5
		c0,1.2-0.5,2.2-1.6,3.1c-1.1,0.8-2.3,1.3-3.8,1.3c-1.5,0-2.8-0.4-3.8-1.3c-1.1-0.8-1.6-1.9-1.6-3.1c0-0.6,0.1-1.2,0.4-1.7
		c0.3-0.5,0.7-1,1.2-1.4c0.5-0.4,1.1-0.7,1.7-0.9c0.7-0.2,1.4-0.3,2.1-0.3c0.8,0,1.5,0.1,2.1,0.3c0.7,0.2,1.2,0.5,1.7,0.9
		c0.5,0.4,0.9,0.9,1.2,1.4C149.4,37.3,149.6,37.9,149.6,38.5z M146.2,38.5c0-0.4-0.2-0.8-0.6-1.2c-0.4-0.3-0.9-0.5-1.4-0.5
		c-0.6,0-1,0.2-1.5,0.5s-0.6,0.7-0.6,1.2c0,0.4,0.2,0.8,0.6,1.2c0.4,0.3,0.9,0.5,1.5,0.5c0.6,0,1-0.2,1.4-0.5
		C146,39.3,146.2,38.9,146.2,38.5z"/>
	<path class="st0" d="M166.7,70.9c0.8,0.9,1.9,1.7,3.2,2.2c1.3,0.6,2.9,0.8,4.8,0.8c1.9,0,3.7-0.4,5.3-1.1s3-1.7,4.3-3
		c1.3-1.2,2.5-2.6,3.5-4.1s2-3,2.8-4.5c0.2-0.4,0.5-0.6,0.8-0.8c0.4-0.2,0.8-0.3,1.2-0.3c0.7,0,1.2,0.2,1.6,0.6
		c0.4,0.4,0.6,0.8,0.6,1.2c0,0.2,0,0.3-0.1,0.4c0,0.1-0.1,0.2-0.2,0.4c-2.7,4.9-5.7,8.5-9,11c-3.2,2.5-6.9,3.7-11,3.8
		c-2.6,0-4.9-0.4-6.8-1.2c-1.9-0.8-3.5-1.9-4.7-3.2c-1.2-1.3-2.1-2.8-2.7-4.4c-0.6-1.6-0.9-3.3-0.9-4.9c0-1.6,0.2-3.1,0.7-4.5
		c0.5-1.4,1.2-2.6,2.1-3.6c0.9-1,2-1.8,3.3-2.4c1.3-0.6,2.7-0.9,4.3-0.9c0.9,0,1.8,0.2,2.7,0.5c0.9,0.3,1.7,0.7,2.4,1.3
		c0.7,0.6,1.3,1.2,1.7,2c0.4,0.8,0.7,1.7,0.7,2.7c0,1.3-0.3,2.5-0.8,3.7c-0.6,1.2-1.3,2.2-2.3,3.2c-1,1-2.1,1.9-3.5,2.7
		C169.7,69.6,168.3,70.3,166.7,70.9z M164.9,67.8c1.2-0.4,2.4-0.9,3.4-1.6c1-0.6,1.9-1.3,2.6-2.1c0.7-0.8,1.3-1.6,1.7-2.4
		c0.4-0.8,0.6-1.7,0.6-2.6c0-1-0.3-1.7-0.9-2.2c-0.6-0.5-1.3-0.7-2.1-0.7c-1.1,0-2,0.2-2.7,0.7c-0.8,0.5-1.4,1.1-1.8,1.9
		c-0.5,0.8-0.8,1.6-1,2.6c-0.2,0.9-0.3,1.9-0.3,2.8c0,0.6,0.1,1.2,0.2,1.8C164.6,66.6,164.7,67.2,164.9,67.8z"/>
	<path class="st0" d="M196.9,56.4c-0.2,0.9-0.4,1.7-0.6,2.4c-0.2,0.8-0.5,1.4-0.7,2c-0.2,0.6-0.4,1-0.6,1.4
		c-0.2,0.4-0.3,0.5-0.3,0.6c-0.4,0.7-1.1,1.1-2.1,1.1c-0.6,0-1.1-0.2-1.5-0.5c-0.5-0.3-0.7-0.8-0.7-1.3c0-0.2,0-0.3,0.1-0.4
		c0.1-0.1,0.2-0.3,0.4-0.6c0.2-0.3,0.4-0.8,0.6-1.4c0.2-0.7,0.5-1.7,0.9-3.1c-0.7,0-1.4,0-2.1,0c-0.7,0-1.4-0.1-2-0.3
		c-0.6-0.2-1.1-0.5-1.5-0.9c-0.4-0.4-0.6-1-0.6-1.7c0-0.5,0.2-1.3,0.6-2.2c0.4-0.9,0.9-1.8,1.5-2.7c0.6-0.9,1.3-1.7,2.1-2.3
		c0.8-0.7,1.6-1,2.4-1c0.9,0,1.7,0.3,2.2,0.8c0.6,0.5,1,1.2,1.3,2c0.3,0.8,0.5,1.6,0.7,2.5c0.1,0.9,0.2,1.6,0.2,2.3c0.7,0,1.3,0,2,0
		c0.7,0,1.3,0,1.9,0c2.3,0,4,0.4,5.2,1.2c1.2,0.8,1.8,2.1,1.8,3.9c0,0.7-0.1,1.5-0.2,2.3c-0.1,0.8-0.3,1.6-0.4,2.5
		c-0.2,0.8-0.3,1.7-0.4,2.5c-0.1,0.8-0.2,1.6-0.2,2.4c0,1.2,0.2,2.1,0.6,2.9c0.4,0.8,0.9,1.4,1.5,1.8s1.2,0.8,1.9,0.9
		c0.7,0.2,1.3,0.3,1.8,0.3c1.7,0,3.3-0.4,4.8-1.3c1.5-0.9,2.9-2,4.2-3.2c1.3-1.3,2.4-2.6,3.4-4s1.9-2.6,2.5-3.7
		c0.2-0.3,0.5-0.5,0.8-0.7c0.4-0.2,0.7-0.2,1.1-0.2c0.7,0,1.3,0.2,1.7,0.6c0.4,0.4,0.6,0.8,0.6,1.2c0,0.3-0.1,0.6-0.2,0.9
		c-0.9,1.3-2,2.8-3.2,4.4c-1.2,1.6-2.6,3.2-4.1,4.6c-1.5,1.4-3.3,2.7-5.2,3.6c-1.9,1-4,1.5-6.3,1.5c-1.4,0-2.8-0.2-4-0.6
		c-1.3-0.4-2.4-1.1-3.3-1.9c-0.9-0.8-1.7-1.8-2.2-3c-0.6-1.2-0.8-2.6-0.8-4.1c0-1.6,0.2-3.2,0.6-4.8c0.4-1.6,0.6-3.1,0.6-4.5
		c0-0.6-0.2-1.1-0.5-1.4c-0.3-0.3-1.1-0.5-2.2-0.5c-0.6,0-1.2,0-1.8,0C198.4,56.4,197.7,56.4,196.9,56.4z M193,52.9
		c0-0.2,0-0.5,0-0.9c0-0.4-0.1-0.7-0.1-1.1c-0.1-0.4-0.1-0.7-0.2-0.9c-0.1-0.3-0.2-0.4-0.3-0.4s-0.3,0.1-0.4,0.4
		c-0.2,0.2-0.4,0.5-0.6,0.9s-0.4,0.7-0.5,1.1c-0.2,0.4-0.3,0.7-0.4,1H193z"/>
	<path class="st0" d="M273.6,62.8c-0.2,0.3-0.5,0.8-1,1.6c-0.5,0.8-1.1,1.8-1.9,2.8c-0.8,1.1-1.7,2.2-2.7,3.3
		c-1,1.2-2.2,2.2-3.5,3.2s-2.6,1.8-4.1,2.4c-1.5,0.6-3,0.9-4.6,0.9c-2.3,0-4.2-0.6-5.8-1.8c-1.6-1.2-2.7-2.7-3.4-4.5
		c-1.3,1.8-3,3.3-4.8,4.3c-1.9,1.1-3.7,1.6-5.6,1.6c-1.5,0-2.8-0.2-4-0.6s-2.2-1-3-1.8c-0.8-0.8-1.5-1.7-1.9-2.8
		c-0.5-1.1-0.7-2.2-0.7-3.5c0-2.5,0.5-4.7,1.6-6.6c1.1-1.9,2.4-3.5,4-4.8c1.6-1.3,3.4-2.2,5.4-2.9c2-0.6,3.9-1,5.7-1
		c1.2,0,2.4,0.1,3.4,0.4c1,0.3,1.9,0.6,2.6,0.9c0.7,0.3,1.3,0.6,1.7,0.9c0.4,0.3,0.6,0.4,0.7,0.5c0.4,0.4,0.7,0.8,0.7,1.3
		c0,0.5-0.2,0.9-0.7,1.3c-0.4,0.4-1,0.6-1.5,0.6c-0.6,0-1.2-0.2-1.6-0.5c-0.1-0.1-0.3-0.2-0.5-0.4c-0.3-0.2-0.7-0.4-1.1-0.6
		c-0.5-0.2-1-0.4-1.7-0.5c-0.7-0.1-1.4-0.2-2.2-0.2c-1.2,0-2.5,0.2-3.9,0.7c-1.4,0.4-2.7,1.1-3.8,2.1c-1.2,0.9-2.1,2.1-2.9,3.6
		c-0.8,1.4-1.2,3.1-1.2,5.1c0,0.6,0.1,1.2,0.2,1.8c0.2,0.6,0.4,1.2,0.8,1.7c0.4,0.5,0.9,0.9,1.6,1.2c0.7,0.3,1.5,0.5,2.5,0.5
		c0.7,0,1.5-0.2,2.5-0.6c0.9-0.4,1.8-1,2.7-1.8c0.9-0.8,1.6-1.8,2.3-3c0.7-1.2,1.2-2.7,1.5-4.3c0.1-0.4,0.3-0.8,0.8-1.1
		c0.4-0.3,1-0.5,1.5-0.5c0.6,0,1,0.2,1.5,0.5c0.4,0.4,0.6,0.8,0.7,1.2c0,0.6,0.1,1.5,0.2,2.6c0.1,1.1,0.4,2.2,0.8,3.3
		c0.4,1.1,1,2,1.9,2.8c0.8,0.8,2,1.2,3.5,1.2c1,0,1.9-0.2,2.8-0.6c0.9-0.4,1.8-1,2.7-1.7c0.9-0.7,1.7-1.5,2.6-2.4s1.6-1.8,2.2-2.7
		c0.7-0.9,1.3-1.8,1.8-2.6c0.5-0.8,1-1.6,1.3-2.2c0.2-0.4,0.5-0.6,0.9-0.8s0.8-0.3,1.2-0.3c0.7,0,1.2,0.2,1.6,0.6
		c0.4,0.4,0.6,0.8,0.6,1.3C273.8,62.3,273.8,62.5,273.6,62.8z"/>
	<path class="st0" d="M317.7,28.1c0,0.5-0.2,0.9-0.7,1.2c-0.4,0.3-1,0.5-1.6,0.5h-30.2v0.5c0,2-0.2,4-0.5,6.2
		c-0.4,2.2-0.8,4.4-1.5,6.6c-0.6,2.2-1.3,4.3-2.1,6.4c-0.8,2.1-1.6,4-2.4,5.8c-0.8,1.8-1.6,3.3-2.4,4.6c-0.8,1.3-1.5,2.3-2.1,2.9
		c0.5,1.5,1.1,2.8,1.8,4.1c0.7,1.3,1.5,2.4,2.4,3.3c0.9,0.9,1.9,1.7,2.9,2.2c1,0.5,2.1,0.8,3.3,0.8c1.4,0,2.8-0.5,4.1-1.4
		c1.4-0.9,2.6-2.1,3.8-3.4s2.2-2.6,3.1-3.9c0.9-1.3,1.5-2.4,1.9-3.2c0.4-0.8,1.1-1.2,2.1-1.2c0.7,0,1.2,0.2,1.6,0.6
		c0.4,0.4,0.6,0.8,0.6,1.2c0,0.2-0.1,0.4-0.2,0.7c-0.1,0.2-0.4,0.7-0.9,1.5S300,66,299.2,67c-0.7,1.1-1.6,2.2-2.6,3.3
		c-1,1.2-2.1,2.2-3.3,3.2s-2.5,1.8-3.9,2.4c-1.4,0.6-2.9,1-4.4,1c-2.7,0-5.2-0.7-7.4-2.2c-2.2-1.4-4-3.5-5.6-6
		c-1.5-2.6-2.7-5.7-3.5-9.2c-0.8-3.6-1.2-7.4-1.2-11.7c0-1.1,0-2.3,0.1-3.7c0-1.4,0.1-2.9,0.2-4.5s0.3-3.2,0.5-4.9
		c0.2-1.7,0.6-3.3,1-4.9h-21.4c-0.6,0-1.2-0.2-1.6-0.5c-0.4-0.3-0.7-0.7-0.7-1.2c0-0.5,0.2-0.9,0.7-1.2c0.4-0.3,1-0.5,1.6-0.5h22.4
		c0.4-1.2,0.9-2.2,1.4-3.2c0.5-1,1.1-1.8,1.8-2.5c0.7-0.7,1.5-1.3,2.3-1.7c0.9-0.4,1.8-0.6,2.8-0.6c1,0,1.9,0.2,2.6,0.6
		c0.7,0.4,1.4,1,1.9,1.7c0.5,0.7,0.9,1.5,1.2,2.5c0.3,1,0.5,2,0.7,3.2h30.4c0.6,0,1.2,0.2,1.6,0.5C317.5,27.2,317.7,27.6,317.7,28.1
		z M272.9,58c1.2-2.1,2.3-4.4,3.2-6.8c1-2.4,1.8-4.9,2.5-7.4c0.7-2.5,1.2-4.9,1.6-7.3c0.4-2.4,0.6-4.6,0.6-6.6h-7
		c-0.6,2-1,4.4-1.3,7.4c-0.3,2.9-0.5,6.5-0.5,10.7c0,2.3,0.1,4.3,0.2,5.9C272.4,55.3,272.6,56.7,272.9,58z M278.5,22.1
		c-0.4,0-0.9,0.3-1.5,0.9c-0.7,0.6-1.3,1.8-2,3.4h5.7c-0.2-1.3-0.5-2.4-0.9-3.2C279.4,22.5,278.9,22.1,278.5,22.1z"/>
	<path class="st0" d="M302.7,72.1c0.6-1.1,1.4-2.3,2.2-3.5c0.8-1.3,1.7-2.6,2.7-3.9c1-1.3,2-2.6,3-4c1.1-1.3,2.2-2.5,3.3-3.7
		c1.2-1.1,2.3-1.9,3.5-2.4c1.2-0.5,2.3-0.7,3.3-0.7s1.9,0.2,2.7,0.5c0.8,0.3,1.4,0.8,1.9,1.4c0.5,0.6,0.9,1.2,1.1,2
		c0.3,0.8,0.4,1.6,0.4,2.5c0,0.7-0.1,1.7-0.3,3c-0.2,1.2-0.3,2.5-0.3,3.9c0,0.8,0,1.5,0.1,2.3c0.1,0.8,0.3,1.4,0.5,2
		c0.3,0.6,0.6,1.1,1.2,1.4s1.2,0.6,2,0.6c1,0,1.9-0.2,2.9-0.6c1-0.4,1.9-1,2.8-1.7c0.9-0.7,1.8-1.5,2.6-2.4c0.8-0.9,1.6-1.8,2.3-2.6
		c0.7-0.9,1.3-1.7,1.8-2.5c0.5-0.8,0.9-1.5,1.3-2c0.4-0.7,1.1-1.1,2.1-1.1c0.7,0,1.2,0.2,1.6,0.6c0.4,0.4,0.6,0.8,0.6,1.2
		c0,0.3-0.1,0.5-0.2,0.7c-0.2,0.3-0.5,0.8-0.9,1.6c-0.5,0.8-1.1,1.7-1.8,2.8c-0.8,1.1-1.7,2.2-2.7,3.3c-1,1.2-2.2,2.2-3.4,3.2
		c-1.3,1-2.6,1.8-4,2.4c-1.4,0.6-3,0.9-4.6,0.9c-1.8,0-3.3-0.3-4.4-0.9s-2-1.4-2.6-2.4c-0.6-1-1-2-1.2-3.2c-0.2-1.2-0.3-2.3-0.3-3.5
		c0-0.6,0-1.2,0.1-1.8c0.1-0.7,0.1-1.3,0.2-1.9c0.1-0.6,0.1-1.2,0.2-1.8c0.1-0.6,0.1-1,0.1-1.4c0-1-0.2-1.7-0.5-2
		c-0.3-0.4-0.7-0.5-1.2-0.5c-0.6,0-1.4,0.3-2.2,0.9c-0.8,0.6-1.7,1.4-2.6,2.3s-1.8,2-2.7,3.2c-0.9,1.2-1.8,2.4-2.6,3.6
		c-0.8,1.2-1.6,2.3-2.3,3.4c-0.7,1.1-1.2,2-1.7,2.7c-0.8,1.3-1.7,2.2-2.5,2.7c-0.9,0.5-1.6,0.7-2.3,0.7c-1.2,0-2.2-0.4-2.8-1.2
		c-0.7-0.8-1-1.7-1-2.9v-3c0-6,0-11.8,0-17.3c0-5.5,0.1-10.6,0.3-15.3c0.2-4.7,0.5-9,0.9-12.8c0.4-3.8,1-7.1,1.9-9.8
		c0.8-2.7,1.9-4.8,3.2-6.3c1.3-1.5,2.9-2.2,4.8-2.2c1.7,0,3.1,0.4,4.2,1.1c1.1,0.7,2.1,1.7,2.8,3c0.7,1.3,1.2,2.7,1.5,4.4
		c0.3,1.7,0.5,3.4,0.5,5.3c0,3.8-0.4,7.5-1.3,11.1c-0.9,3.6-2,7.2-3.4,10.6c-1.4,3.5-3.1,6.8-5,10.1c-1.9,3.3-3.9,6.5-6,9.6
		c0,0.6,0,1.3,0,2.1c0,0.8,0,1.6,0,2.4c0,0.8,0,1.6,0,2.3c0,0.7,0,1.3,0,1.7L302.7,72.1z M302.7,54.4c1.7-2.9,3.2-5.8,4.6-8.6
		c1.4-2.8,2.5-5.6,3.5-8.4c1-2.8,1.7-5.6,2.3-8.5c0.6-2.9,0.8-5.8,0.8-9c0-0.5,0-1.3-0.1-2.4s-0.2-2.3-0.5-3.4
		c-0.3-1.2-0.8-2.2-1.4-3c-0.6-0.9-1.5-1.3-2.6-1.3c-0.9,0-1.6,0.5-2.3,1.4c-0.6,0.9-1.2,2.2-1.7,3.8c-0.5,1.6-0.9,3.5-1.2,5.6
		c-0.3,2.1-0.6,4.4-0.8,6.8c-0.2,2.4-0.3,4.9-0.4,7.4c-0.1,2.5-0.2,5-0.2,7.4c0,2.4-0.1,4.6-0.1,6.7C302.7,51,302.7,52.8,302.7,54.4
		z"/>
</g>
</svg>
